HIERARCHY
ROOT Hips
{
  OFFSET 0.0273292 -0.436096 0.279869
  CHANNELS 6 Xposition Yposition Zposition Zrotation Xrotation Yrotation
  JOINT LHipJoint
  {
    OFFSET 0 0 0
    CHANNELS 6 Xposition Yposition Zposition Zrotation Xrotation Yrotation
    JOINT LeftUpLeg
    {
      OFFSET 1.36306 -1.79463 0
      CHANNELS 6 Xposition Yposition Zposition Zrotation Xrotation Yrotation
      JOINT LeftLeg
      {
        OFFSET 2.44807 -6.72613 0.000295034
        CHANNELS 6 Xposition Yposition Zposition Zrotation Xrotation Yrotation
        JOINT LeftFoot
        {
          OFFSET 2.5622 -7.03959 3.59965e-05
          CHANNELS 6 Xposition Yposition Zposition Zrotation Xrotation Yrotation
          JOINT LeftToeBase
          {
            OFFSET 0.15764 -0.43311 2.32255
            CHANNELS 6 Xposition Yposition Zposition Zrotation Xrotation Yrotation
            End Site
            {
              OFFSET 0 0 0
            }
          }
        }
      }
    }
  }
  JOINT RHipJoint
  {
    OFFSET 0 0 0
    CHANNELS 6 Xposition Yposition Zposition Zrotation Xrotation Yrotation
    JOINT RightUpLeg
    {
      OFFSET -1.30552 -1.79463 0
      CHANNELS 6 Xposition Yposition Zposition Zrotation Xrotation Yrotation
      JOINT RightLeg
      {
        OFFSET -2.54234 -6.98562 -0.000396375
        CHANNELS 6 Xposition Yposition Zposition Zrotation Xrotation Yrotation
        JOINT RightFoot
        {
          OFFSET -2.56826 -7.05623 -4.47982e-05
          CHANNELS 6 Xposition Yposition Zposition Zrotation Xrotation Yrotation
          JOINT RightToeBase
          {
            OFFSET -0.16473 -0.45259 2.36315
            CHANNELS 6 Xposition Yposition Zposition Zrotation Xrotation Yrotation
            End Site
            {
              OFFSET 0 0 0
            }
          }
        }
      }
    }
  }
  JOINT LowerBack
  {
    OFFSET 0 0 0
    CHANNELS 6 Xposition Yposition Zposition Zrotation Xrotation Yrotation
    JOINT Spine
    {
      OFFSET 0.0282699 2.03559 0
      CHANNELS 6 Xposition Yposition Zposition Zrotation Xrotation Yrotation
      JOINT Spine1
      {
        OFFSET 0.05672 2.04885 -0.04275
        CHANNELS 6 Xposition Yposition Zposition Zrotation Xrotation Yrotation
        JOINT Neck
        {
          OFFSET 0 0 0
          CHANNELS 6 Xposition Yposition Zposition Zrotation Xrotation Yrotation
          JOINT Neck1
          {
            OFFSET -0.05417 1.74624 0.17202
            CHANNELS 6 Xposition Yposition Zposition Zrotation Xrotation Yrotation
            JOINT Head
            {
              OFFSET 0.10407 1.76136 -0.12397
              CHANNELS 6 Xposition Yposition Zposition Zrotation Xrotation Yrotation
              End Site
              {
                OFFSET 0 0 0
              }
            }
          }
        }
        JOINT LeftShoulder
        {
          OFFSET 0 0 0
          CHANNELS 6 Xposition Yposition Zposition Zrotation Xrotation Yrotation
          JOINT LeftArm
          {
            OFFSET 3.36241 1.20089 -0.311211
            CHANNELS 6 Xposition Yposition Zposition Zrotation Xrotation Yrotation
            JOINT LeftForeArm
            {
              OFFSET 4.983 0.000197398 0.000166057
              CHANNELS 6 Xposition Yposition Zposition Zrotation Xrotation Yrotation
              JOINT LeftHand
              {
                OFFSET 3.48356 0 1.87849e-05
                CHANNELS 6 Xposition Yposition Zposition Zrotation Xrotation Yrotation
                JOINT LeftFingerBase
                {
                  OFFSET 0 0 0
                  CHANNELS 6 Xposition Yposition Zposition Zrotation Xrotation Yrotation
                  JOINT LeftHandIndex1
                  {
                    OFFSET 0.71526 0 0
                    CHANNELS 6 Xposition Yposition Zposition Zrotation Xrotation Yrotation
                    End Site
                    {
                      OFFSET 0 0 0
                    }
                  }
                }
                JOINT LThumb
                {
                  OFFSET 0 0 0
                  CHANNELS 6 Xposition Yposition Zposition Zrotation Xrotation Yrotation
                  End Site
                  {
                    OFFSET 0 0 0
                  }
                }
              }
            }
          }
        }
        JOINT RightShoulder
        {
          OFFSET 0 0 0
          CHANNELS 6 Xposition Yposition Zposition Zrotation Xrotation Yrotation
          JOINT RightArm
          {
            OFFSET -3.1366 1.37405 -0.404651
            CHANNELS 6 Xposition Yposition Zposition Zrotation Xrotation Yrotation
            JOINT RightForeArm
            {
              OFFSET -5.2419 -5.8808e-05 -0.000165864
              CHANNELS 6 Xposition Yposition Zposition Zrotation Xrotation Yrotation
              JOINT RightHand
              {
                OFFSET -3.44417 0 -2.00002e-05
                CHANNELS 6 Xposition Yposition Zposition Zrotation Xrotation Yrotation
                JOINT RightFingerBase
                {
                  OFFSET 0 0 0
                  CHANNELS 6 Xposition Yposition Zposition Zrotation Xrotation Yrotation
                  JOINT RightHandIndex1
                  {
                    OFFSET -0.62253 0 0
                    CHANNELS 6 Xposition Yposition Zposition Zrotation Xrotation Yrotation
                    End Site
                    {
                      OFFSET 0 0 0
                    }
                  }
                }
                JOINT RThumb
                {
                  OFFSET 0 0 0
                  CHANNELS 6 Xposition Yposition Zposition Zrotation Xrotation Yrotation
                  End Site
                  {
                    OFFSET 0 0 0
                  }
                }
              }
            }
          }
        }
      }
    }
  }
}
MOTION
Frames:	5
Frame Time:	0.00833333
-0.273061 1.6792 1.75141 3.23194 0 -0 0 0 0 0 0 -0 1.36306 -1.79463 -2.22045e-16 23.6833 -54.3145 25.7398 2.44793 -6.7262 -4.54975e-05 -87.7895 60.8468 110.879 2.56228 -7.03956 1.76647e-05 8.17446 3.49554 -5.75548 0.15764 -0.43311 2.32255 0 3.18055e-15 -0 0 0 0 0 0 -0 -1.30552 -1.79463 -2.22045e-16 -4.30005 -57.346 -8.69289 -2.54196 -6.98575 -8.39989e-06 105.601 68.4251 -122.04 -2.56827 -7.05622 3.96239e-05 21.2088 11.0986 -7.84249 -0.16473 -0.45259 2.36315 3.18055e-15 0 -3.18055e-15 0 0 0 0 0 -0 0.0282704 2.03559 -2.22045e-16 -5.10288 5.01642 9.91335 0.05672 2.04885 -0.04275 -0 -7.95139e-16 -0 0 0 0 4.96962e-16 -7.95139e-16 -0 -0.05417 1.74624 0.17202 -6.02757 -36.1945 -8.40646 0.10407 1.76136 -0.12397 3.97569e-16 0 -3.97569e-16 0 0 0 4.96962e-16 -7.95139e-16 -0 3.36241 1.20089 -0.311211 -13.8732 -25.8828 -57.9821 4.983 -0.000204141 -0.000150919 2.45995 1.21518 -101.218 3.48356 -4.21846e-06 4.89043e-08 -8.02335e-05 -6.36111e-15 3.18055e-15 0 0 0 -1.59028e-15 -6.36111e-15 6.36111e-15 0.71526 -8.88178e-16 1.77636e-15 1.59028e-15 0 -0 0 0 0 -1.59028e-15 -6.36111e-15 6.36111e-15 0 0 0 4.96962e-16 -7.95139e-16 -0 -3.1366 1.37405 -0.40465 23.9057 -26.0947 37.985 -5.2419 -0.000161033 -8.24804e-05 -2.64432 1.15627 110.352 -3.44417 -5.22131e-06 -7.64749e-06 9.24687e-05 0 -8.42177e-05 0 0 0 1.59028e-15 0 3.18055e-15 -0.62253 0 0 4.77083e-15 0 3.18055e-15 0 0 0 1.59028e-15 0 3.18055e-15 
-0.272157 1.67128 1.74448 3.20516 0.227358 -0.286716 0 0 0 2.11209e-16 -9.93923e-17 4.96962e-17 1.36306 -1.79463 -4.44089e-16 24.4358 -53.9228 26.0608 2.44793 -6.7262 -4.54975e-05 -87.287 60.7936 110.775 2.56228 -7.03956 1.76647e-05 11.1731 2.97161 -5.52816 0.15764 -0.43311 2.32255 -3.18055e-15 3.18055e-15 3.18055e-15 0 0 0 2.11209e-16 -9.93923e-17 4.96962e-17 -1.30552 -1.79463 -2.22045e-16 -5.50202 -57.0928 -8.77033 -2.54196 -6.98575 -8.39989e-06 106.188 68.3437 -122.534 -2.56827 -7.05622 3.96239e-05 21.0789 10.9114 -7.68549 -0.16473 -0.45259 2.36315 -6.36111e-15 0 3.18055e-15 0 0 0 2.11209e-16 -9.93923e-17 4.96962e-17 0.0282704 2.03559 -4.44089e-16 -5.35858 4.98395 9.95513 0.05672 2.04885 -0.04275 2.98177e-16 -7.95139e-16 -1.59028e-15 0 0 0 2.98177e-16 -7.95139e-16 -1.59028e-15 -0.05417 1.74624 0.17202 -6.13576 -36.779 -8.46063 0.10407 1.76136 -0.12397 -5.96354e-16 0 -0 0 0 0 2.98177e-16 -7.95139e-16 -1.59028e-15 3.36241 1.20089 -0.311211 -14.4004 -28.6928 -59.8719 4.983 -0.000204141 -0.000150919 2.41661 1.01673 -99.0745 3.48356 -4.21846e-06 4.89043e-08 -0.225978 0.381526 -0.29419 0 0 0 1.59028e-15 -6.36111e-15 -3.18055e-15 0.71526 -1.77636e-15 0 -1.76556e-31 3.18055e-15 3.18055e-15 0 0 0 1.59028e-15 -6.36111e-15 -3.18055e-15 0 0 0 2.98177e-16 -7.95139e-16 -1.59028e-15 -3.1366 1.37405 -0.40465 23.912 -29.7319 39.3277 -5.2419 -0.000161033 -8.24804e-05 -2.60508 1.06893 108.343 -3.44417 -5.22131e-06 -7.64749e-06 0.229534 0.657128 0.259007 0 0 0 -3.18055e-15 0 -0 -0.62253 0 0 -3.18055e-15 3.18055e-15 3.18055e-15 0 0 0 -3.18055e-15 0 -0 
-0.269894 1.66747 1.7279 3.13894 0.312482 -0.406271 0 0 0 -3.57579e-16 0 4.96962e-17 1.36306 -1.79463 -2.22045e-16 24.2222 -53.1713 25.8611 2.44793 -6.7262 -4.54975e-05 -87.027 60.7939 110.592 2.56228 -7.03956 1.76647e-05 12.609 1.7047 -4.97422 0.15764 -0.43311 2.32255 3.53113e-31 6.36111e-15 -3.18055e-15 0 0 0 -3.57579e-16 0 4.96962e-17 -1.30552 -1.79463 0 -6.00201 -56.4623 -8.92025 -2.54196 -6.98575 -8.39989e-06 106.696 68.3595 -122.895 -2.56827 -7.05622 3.96239e-05 20.7721 10.4547 -7.3049 -0.16473 -0.45259 2.36315 3.18055e-15 0 3.18055e-15 0 0 0 -3.57579e-16 0 4.96962e-17 0.0282704 2.03559 -2.22045e-16 -5.4519 4.9035 9.9692 0.05672 2.04885 -0.04275 -9.93923e-17 -7.95139e-16 -1.59028e-15 0 0 0 -9.93923e-17 -7.95139e-16 -1.59028e-15 -0.05417 1.74624 0.17202 -6.17494 -37.0812 -8.46107 0.10407 1.76136 -0.12397 3.97569e-16 3.18055e-15 7.95139e-16 0 0 0 -9.93923e-17 -7.95139e-16 -1.59028e-15 3.36241 1.20089 -0.311211 -14.3602 -30.3597 -60.1635 4.983 -0.000204141 -0.000150919 2.3966 1.00784 -98.1789 3.48356 -4.21846e-06 4.89043e-08 -0.737643 1.2785 -0.957279 0 0 0 6.36111e-15 3.18055e-15 -6.36111e-15 0.71526 1.77636e-15 0 3.18055e-15 -3.18055e-15 6.36111e-15 0 0 0 6.36111e-15 3.18055e-15 -6.36111e-15 0 0 0 -9.93923e-17 -7.95139e-16 -1.59028e-15 -3.1366 1.37405 -0.40465 23.7649 -31.4054 39.6187 -5.2419 -0.000161033 -8.24804e-05 -2.58866 1.08059 107.535 -3.44417 -5.22131e-06 -7.64749e-06 0.754368 2.2434 0.828281 0 0 0 -4.77083e-15 6.36111e-15 -9.54166e-15 -0.62253 8.88178e-16 0 3.53113e-31 3.18055e-15 -6.36111e-15 0 0 0 -4.77083e-15 6.36111e-15 -9.54166e-15 
-0.266944 1.66601 1.70797 3.05755 0.351539 -0.457057 0 0 0 6.1732e-17 4.96962e-17 -0 1.36306 -1.79463 -2.22045e-16 23.6644 -52.2383 25.3801 2.44793 -6.7262 -4.54975e-05 -86.6321 60.8416 110.294 2.56228 -7.03956 1.76647e-05 13.4689 0.153076 -4.28374 0.15764 -0.43311 2.32255 9.54166e-15 0 -0 0 0 0 6.1732e-17 4.96962e-17 -0 -1.30552 -1.79463 -2.22045e-16 -6.21584 -55.6488 -9.02358 -2.54196 -6.98575 -8.39989e-06 107.094 68.4342 -123.159 -2.56827 -7.05622 3.96239e-05 20.4113 9.88639 -6.83591 -0.16473 -0.45259 2.36315 -3.18055e-15 3.18055e-15 -0 0 0 0 6.1732e-17 4.96962e-17 -0 0.0282704 2.03559 -2.22045e-16 -5.47932 4.79766 9.97482 0.05672 2.04885 -0.04275 -1.98785e-16 -1.59028e-15 -1.59028e-15 0 0 0 -1.98785e-16 -2.38542e-15 -1.59028e-15 -0.05417 1.74624 0.17202 -6.1596 -37.196 -8.41203 0.10407 1.76136 -0.12397 -5.96354e-16 -9.54166e-15 7.95139e-16 0 0 0 -1.98785e-16 -2.38542e-15 -1.59028e-15 3.36241 1.20089 -0.311211 -14.0227 -31.546 -59.6637 4.983 -0.000204141 -0.000150919 2.38629 1.11297 -97.7813 3.48356 -4.21846e-06 4.89043e-08 -1.29789 2.3193 -1.66407 0 0 0 1.76556e-31 -3.18055e-15 3.18055e-15 0.71526 1.77636e-15 1.77636e-15 0 0 -0 0 0 0 1.76556e-31 -3.18055e-15 3.18055e-15 0 0 0 -1.98785e-16 -2.38542e-15 -1.59028e-15 -3.1366 1.37405 -0.40465 23.5002 -32.2549 39.35 -5.2419 -0.000161033 -8.24804e-05 -2.58074 1.13879 107.179 -3.44417 -5.22131e-06 -7.64749e-06 1.34816 4.18089 1.39978 0 0 0 -3.53113e-31 -3.18055e-15 -6.36111e-15 -0.62253 0 0 -3.53113e-31 3.18055e-15 6.36111e-15 0 0 0 -3.53113e-31 -3.18055e-15 -6.36111e-15 
-0.263979 1.66511 1.69097 2.98691 0.440689 -0.537475 0 0 0 -4.09217e-16 0 -9.93923e-17 1.36306 -1.79463 0 23.367 -51.3026 24.8383 2.44793 -6.7262 -4.54975e-05 -85.7237 60.9301 109.849 2.56228 -7.03956 1.76647e-05 14.708 -1.22165 -3.64173 0.15764 -0.43311 2.32255 3.18055e-15 0 -0 0 0 0 -4.09217e-16 0 -9.93923e-17 -1.30552 -1.79463 -2.22045e-16 -6.57287 -54.8466 -8.97144 -2.54196 -6.98575 -8.39989e-06 107.349 68.5291 -123.364 -2.56827 -7.05622 3.96239e-05 20.1115 9.36578 -6.41161 -0.16473 -0.45259 2.36315 -3.18055e-15 -3.18055e-15 -0 0 0 0 -4.09217e-16 0 -9.93923e-17 0.0282704 2.03559 -2.22045e-16 -5.53726 4.68904 9.99121 0.05672 2.04885 -0.04275 3.97569e-16 0 -1.59028e-15 0 0 0 1.98785e-16 7.95139e-16 -1.59028e-15 -0.05417 1.74624 0.17202 -6.10531 -37.2185 -8.31891 0.10407 1.76136 -0.12397 -1.98785e-16 0 3.97569e-16 0 0 0 1.98785e-16 7.95139e-16 -1.59028e-15 3.36241 1.20089 -0.311211 -13.8229 -32.8255 -59.4061 4.983 -0.000204141 -0.000150919 2.37484 1.23202 -97.1338 3.48356 -4.21846e-06 4.89043e-08 -1.70444 3.13308 -2.08844 0 0 0 -3.18055e-15 0 -6.36111e-15 0.71526 0 1.77636e-15 6.36111e-15 -6.36111e-15 -0 0 0 0 -3.18055e-15 0 -6.36111e-15 0 0 0 1.98785e-16 7.95139e-16 -1.59028e-15 -3.1366 1.37405 -0.40465 23.2978 -33.3777 39.2099 -5.2419 -0.000161033 -8.24804e-05 -2.56816 1.18472 106.524 -3.44417 -5.22131e-06 -7.64749e-06 1.8393 5.8928 1.66316 0 0 0 -1.59028e-15 0 -3.18055e-15 -0.62253 -1.77636e-15 0 3.18055e-15 0 -6.36111e-15 0 0 0 -1.59028e-15 0 -3.18055e-15 
